# xmcd CD database file
#
# Track frame offsets:
#	150
#	23342
#	53797
#	78450
#	113775
#	140060
#	164775
#	192727
#
# Disc length: 2864 seconds
#
# Revision: 0
# Processed by: cddbd v1.5PL3 Copyright (c) Steve Scherf et al.
# Submitted via: CDex 1.40Release
#
DISCID=6e0b2e08
DTITLE=Stefan Distelmann - Blue
DYEAR=1993
DGENRE=Blues
TTITLE0=Another Man Done Gone
TTITLE1=Blues And Trouble
TTITLE2=Cholly Blues
TTITLE3=John Henry
TTITLE4=Mund-Werk
TTITLE5=Der Alte und die Kneipe
TTITLE6=Reichsbahn Blues - Partout
TTITLE7=Wintertime
EXTD=YEAR: 1993 ID3G: 0
EXTT0=
EXTT1=
EXTT2=
EXTT3=
EXTT4=
EXTT5=
EXTT6=
EXTT7=
PLAYORDER=
